<svg id="Owkin_Logo_White" data-name="Owkin Logo White" xmlns="http://www.w3.org/2000/svg" xmlns:xlink="http://www.w3.org/1999/xlink" width="150" height="33.345" viewBox="0 0 150 33.345">
  <defs>
    <clipPath id="clip-path">
      <rect id="Rectangle_16" data-name="Rectangle 16" width="150" height="33.345" fill="none"/>
    </clipPath>
  </defs>
  <g id="Group_51" data-name="Group 51" clip-path="url(#clip-path)">
    <path id="Path_62" data-name="Path 62" d="M32.815,30.289l-4.4-4.4a14.875,14.875,0,0,0-.006-18.434l4.4-4.4A1.788,1.788,0,0,0,30.28.523L25.873,4.93a14.875,14.875,0,0,0-18.381.035L3.052.526A1.788,1.788,0,0,0,.524,3.054L4.968,7.5a14.875,14.875,0,0,0,0,18.355l-4.44,4.44a1.788,1.788,0,0,0,0,2.528h0a1.788,1.788,0,0,0,2.528,0L7.5,28.384a14.875,14.875,0,0,0,18.385.027l4.407,4.407a1.788,1.788,0,0,0,2.528-2.528M16.7,28a11.26,11.26,0,0,1-6.653-2.169l5.114-5.114-2.528-2.528-5.11,5.11a11.286,11.286,0,0,1,0-13.24l5.106,5.106,2.528-2.528L10.048,7.522a11.287,11.287,0,0,1,13.267-.033L18.173,12.63,20.7,15.158l5.15-5.15a11.289,11.289,0,0,1,.005,13.322l-5.148-5.148L18.18,20.71l5.143,5.143A11.258,11.258,0,0,1,16.7,28" transform="translate(0 0.001)" fill="#fff"/>
    <path id="Path_63" data-name="Path 63" d="M102.159,99.656a1.784,1.784,0,1,0,0,2.524,1.784,1.784,0,0,0,0-2.524" transform="translate(-84.246 -84.263)" fill="#fff"/>
    <path id="Path_64" data-name="Path 64" d="M311.762,35.771A11.258,11.258,0,1,0,323.02,47.029a11.258,11.258,0,0,0-11.258-11.258m0,19.058a7.8,7.8,0,1,1,7.8-7.8,7.809,7.809,0,0,1-7.8,7.8" transform="translate(-255.428 -30.405)" fill="#fff"/>
    <path id="Path_65" data-name="Path 65" d="M488.342,35.946a1.729,1.729,0,0,0-2.237.988l-5.432,14.031h-.583l-5.143-13.937a1.752,1.752,0,0,0-.17-.362l-.008-.012c-.027-.044-.057-.086-.088-.127l-.012-.016c-.03-.039-.062-.077-.1-.113l-.014-.014c-.034-.036-.07-.07-.107-.1l-.013-.012q-.056-.049-.117-.093l-.015-.01c-.04-.028-.081-.055-.123-.08l-.022-.012c-.04-.023-.081-.044-.123-.064L474,35.993c-.031-.014-.062-.028-.094-.04l-.024-.008-.047-.015c-.038-.012-.076-.024-.114-.034l-.048-.01c-.039-.008-.078-.017-.117-.023l-.057-.006c-.036,0-.073-.009-.109-.011s-.061,0-.091,0-.05,0-.075,0c-.04,0-.08.007-.121.012l-.046,0c-.041.006-.081.015-.122.024l-.043.009c-.039.009-.077.022-.116.034l-.046.014-.024.008c-.032.012-.063.026-.094.04l-.037.016c-.042.019-.083.041-.122.063l-.024.013c-.042.025-.082.051-.121.079l-.017.012c-.04.029-.078.059-.115.091l-.016.014c-.037.032-.071.066-.1.1l-.016.017c-.033.036-.064.072-.094.11l-.015.019c-.03.04-.059.081-.086.124l-.009.015a1.721,1.721,0,0,0-.17.361l-5.143,13.937h-.583L460.51,36.934a1.729,1.729,0,1,0-3.225,1.248l7.337,18.952a1.728,1.728,0,0,0,3.275.1l5.41-14.662,5.41,14.662a1.728,1.728,0,0,0,3.275-.1l7.337-18.952a1.729,1.729,0,0,0-.988-2.237" transform="translate(-388.593 -30.455)" fill="#fff"/>
    <path id="Path_66" data-name="Path 66" d="M704.284,38.73a1.729,1.729,0,0,0-2.467-2.424l-9.63,9.8c-.041.041-.078.084-.114.128V37.5a1.729,1.729,0,1,0-3.458,0V56.55a1.729,1.729,0,0,0,3.458,0V49.344H695.3l6.341,8.259a1.729,1.729,0,0,0,2.743-2.106l-4.917-6.4-2.277-3.14Z" transform="translate(-585.324 -30.405)" fill="#fff"/>
    <path id="Path_67" data-name="Path 67" d="M892.868,37.5a1.729,1.729,0,0,0-3.458,0V50.914H888.8l-11.762-14.5,0,0c-.027-.033-.055-.063-.084-.094-.011-.011-.021-.024-.031-.035s-.04-.036-.059-.054a1.712,1.712,0,0,0-.158-.129l-.041-.03c-.028-.019-.058-.036-.087-.053s-.038-.024-.058-.035-.049-.024-.073-.035-.053-.026-.08-.038l-.057-.021c-.034-.013-.068-.026-.1-.037l-.042-.011a1.716,1.716,0,0,0-.2-.042c-.03,0-.06-.011-.091-.014l-.039,0c-.045,0-.09-.007-.135-.007h-.005l-.042,0c-.042,0-.083,0-.124.006l-.063.009c-.035,0-.071.009-.106.016s-.046.011-.069.016-.063.015-.095.024l-.072.024c-.029.01-.059.02-.087.032s-.049.022-.073.034-.053.024-.079.038-.052.03-.078.046-.045.026-.067.041-.06.043-.09.066c-.014.011-.029.02-.043.031l0,0c-.032.026-.061.054-.091.082a1.73,1.73,0,0,0-.227.26l-.024.032c-.02.03-.038.061-.056.092s-.022.035-.032.053-.025.051-.037.077-.025.05-.036.076-.015.04-.022.06-.025.066-.036.1c0,.014-.007.027-.011.041a1.729,1.729,0,0,0-.051.255c0,.01,0,.02,0,.031s0,.031,0,.047c0,.042-.006.084-.006.127,0,0,0,0,0,.006V56.549a1.729,1.729,0,0,0,3.458,0V43.14h.62l11.755,14.5,0,0a1.721,1.721,0,0,0,.124.136c.015.015.031.028.046.042s.059.053.089.078.042.032.063.048.055.04.084.058l.068.041c.03.018.061.034.093.05l.065.031c.036.016.072.03.109.044l.057.021c.042.014.086.026.13.036l.044.011c.049.011.1.018.151.025l.03,0a1.732,1.732,0,0,0,.184.01h0c.054,0,.108,0,.162-.008l.052-.006c.036,0,.072-.01.108-.016l.06-.013c.033-.007.065-.016.1-.025l.059-.018c.032-.01.064-.022.1-.035l.053-.021c.034-.015.068-.031.1-.049l.042-.021c.046-.025.091-.053.136-.083l.013-.01c.037-.026.074-.052.109-.081l0,0c.031-.026.061-.054.091-.082a1.712,1.712,0,0,0,.227-.26l.024-.032c.02-.03.038-.061.056-.092s.022-.035.032-.053.025-.051.037-.077.025-.05.036-.076.014-.04.022-.06.025-.066.036-.1c0-.014.007-.028.01-.041a1.709,1.709,0,0,0,.051-.255c0-.01,0-.021,0-.031s0-.031,0-.047c0-.042.006-.084.006-.127,0,0,0,0,0-.006Z" transform="translate(-742.868 -30.404)" fill="#fff"/>
    <path id="Path_68" data-name="Path 68" d="M820.74,35.77a1.729,1.729,0,0,0-1.729,1.729V56.55a1.729,1.729,0,1,0,3.458,0V37.5a1.729,1.729,0,0,0-1.729-1.729" transform="translate(-696.159 -30.405)" fill="#fff"/>
  </g>
</svg>
